<svg width="108" height="30" viewBox="0 0 108 30" fill="none" xmlns="http://www.w3.org/2000/svg">
<path d="M0.610359 13.5068L21.847 0.674225V7.82019L10.4235 14.9662L21.847 21.8102V29.3587L0.610359 16.7778V13.5068ZM78.7008 0.686156H83.9787L78.1615 28H72.8836L78.7008 0.686156ZM107.212 16.7778L85.9758 29.3587V21.8102L97.3992 14.9662L85.9758 7.82019V0.674225L107.212 13.5068V16.7778Z" fill="#70A1FF"/>
<path d="M26.7638 28V0.647632H36.9728C39.2329 0.647632 41.2105 1.00719 42.9056 1.72632C44.6007 2.44544 46.0132 3.42139 47.1433 4.65418C48.299 5.88696 49.1594 7.33805 49.7244 9.00744C50.3151 10.6512 50.6105 12.4104 50.6105 14.2853C50.6105 16.3656 50.2894 18.2533 49.6474 19.9484C49.0053 21.6178 48.0807 23.056 46.8736 24.2631C45.6922 25.4445 44.2539 26.3691 42.5589 27.0369C40.8895 27.679 39.0274 28 36.9728 28H26.7638ZM44.1769 14.2853C44.1769 13.0782 44.0099 11.9867 43.6761 11.0107C43.3679 10.0091 42.9056 9.1487 42.2892 8.42957C41.6728 7.71045 40.9151 7.15827 40.0162 6.77302C39.1173 6.38778 38.1029 6.19515 36.9728 6.19515H33.0818V22.4525H36.9728C38.1285 22.4525 39.1559 22.247 40.0548 21.8361C40.9537 21.4252 41.6985 20.8601 42.2892 20.141C42.9056 19.3962 43.3679 18.5358 43.6761 17.5599C44.0099 16.5582 44.1769 15.4667 44.1769 14.2853ZM53.7626 28V0.647632H72.3313V6.19515H60.0806V12.0894H70.174V17.2132H60.0806V28H53.7626Z" fill="white"/>
</svg>
